<svg width="16" height="18" viewBox="0 0 16 18" fill="none" xmlns="http://www.w3.org/2000/svg">
<path d="M12.6665 0H3.3333C1.49332 0 0 1.43232 0 3.19714V16.0753C0 16.8682 0.473339 17.546 1.23999 17.8465C2.00663 18.1471 2.83997 17.9872 3.42002 17.4245L8.00002 12.9868L12.58 17.4245C12.9667 17.8018 13.4667 18 13.9867 18C14.2467 18 14.5067 17.9488 14.76 17.8529C15.5267 17.5524 16 16.8746 16 16.0817V3.19719C16 1.43237 14.5065 0 12.6665 0ZM14.6665 16.0751C14.6665 16.4716 14.3532 16.6314 14.2532 16.6634C14.1598 16.7018 13.8199 16.8041 13.5265 16.5227L8.47315 11.6246C8.21982 11.3816 7.77317 11.3816 7.52649 11.6246L2.4731 16.5227C2.17977 16.8041 1.83977 16.7018 1.74646 16.6634C1.64646 16.625 1.33313 16.4716 1.33313 16.0751V3.19694C1.33313 2.14189 2.23313 1.27865 3.33311 1.27865H12.6663C13.7663 1.27865 14.6663 2.14189 14.6663 3.19694L14.6665 16.0751Z" fill="#A0A0A0"/>
</svg>
