<svg width="16" height="16" viewBox="0 0 16 16" fill="none" xmlns="http://www.w3.org/2000/svg">
<path d="M3.61673 5.26138H0.273438V15.9229H3.61673V5.26138Z" fill="#A0A0A0"/>
<path d="M12.6583 5.03028C12.5351 5.01487 12.4041 5.00717 12.2732 4.99947C10.4012 4.92243 9.34587 6.03173 8.9761 6.50934C8.87596 6.6403 8.82973 6.71733 8.82973 6.71733V5.2922H5.63281V15.9537H8.82973H8.9761C8.9761 14.8676 8.9761 13.7891 8.9761 12.7029C8.9761 12.1174 8.9761 11.532 8.9761 10.9465C8.9761 10.2224 8.92218 9.45205 9.28424 8.78955C9.59237 8.23491 10.147 7.95758 10.771 7.95758C12.6198 7.95758 12.6583 9.62923 12.6583 9.78329C12.6583 9.791 12.6583 9.7987 12.6583 9.7987V16H16.0016V9.04377C16.0016 6.66341 14.7922 5.26138 12.6583 5.03028Z" fill="#A0A0A0"/>
<path d="M1.94126 3.88253C3.01339 3.88253 3.88253 3.01339 3.88253 1.94126C3.88253 0.869133 3.01339 0 1.94126 0C0.869129 0 0 0.869133 0 1.94126C0 3.01339 0.869129 3.88253 1.94126 3.88253Z" fill="#A0A0A0"/>
</svg>
