<svg width="12" height="12" viewBox="0 0 12 12" fill="none" xmlns="http://www.w3.org/2000/svg">
<path fill-rule="evenodd" clip-rule="evenodd" d="M4.25571 5.44029C1.79829 6.29614 0 8.87486 0 11.5714C0 11.808 0.192 12 0.428571 12C0.665143 12 0.857143 11.808 0.857143 11.5714C0.857143 8.724 3.15257 6 6 6C8.84743 6 11.1429 8.724 11.1429 11.5714C11.1429 11.808 11.3349 12 11.5714 12C11.808 12 12 11.808 12 11.5714C12 8.87486 10.2017 6.29614 7.74429 5.44029C8.50414 4.896 9 4.00543 9 3C9 1.34443 7.65557 0 6 0C4.34443 0 3 1.34443 3 3C3 4.00543 3.49586 4.896 4.25571 5.44029ZM6 0.857143C7.18286 0.857143 8.14286 1.81714 8.14286 3C8.14286 4.18286 7.18286 5.14286 6 5.14286C4.81714 5.14286 3.85714 4.18286 3.85714 3C3.85714 1.81714 4.81714 0.857143 6 0.857143Z" fill="#121212"/>
</svg>
