<svg width="28" height="21" viewBox="0 0 28 21" fill="none" xmlns="http://www.w3.org/2000/svg">
<path fill-rule="evenodd" clip-rule="evenodd" d="M1.5 0C0.67157 0 0 0.67157 0 1.5C0 2.32843 0.67157 3 1.5 3H26.5C27.3284 3 28 2.32843 28 1.5C28 0.67157 27.3284 0 26.5 0H1.5ZM0 10.5C0 9.67157 0.67157 9 1.5 9H20.5C21.3284 9 22 9.67157 22 10.5C22 11.3284 21.3284 12 20.5 12H1.5C0.67157 12 0 11.3284 0 10.5ZM0 19.5C0 18.6716 0.67157 18 1.5 18H14.5C15.3284 18 16 18.6716 16 19.5C16 20.3284 15.3284 21 14.5 21H1.5C0.67157 21 0 20.3284 0 19.5Z" fill="white"/>
</svg>
