<svg width="44" height="44" viewBox="0 0 44 44" fill="none" xmlns="http://www.w3.org/2000/svg">
<g clip-path="url(#clip0_4145_7740)">
<path d="M22 38.5C31.1127 38.5 38.5 31.1127 38.5 22C38.5 12.8873 31.1127 5.5 22 5.5C12.8873 5.5 5.5 12.8873 5.5 22C5.5 31.1127 12.8873 38.5 22 38.5Z" stroke="#121212" stroke-width="2.75" stroke-linecap="round" stroke-linejoin="round"/>
<path d="M16.5 16.5H16.5183" stroke="#121212" stroke-width="2.75" stroke-linecap="round" stroke-linejoin="round"/>
<path d="M27.5 16.5H27.5183" stroke="#121212" stroke-width="2.75" stroke-linecap="round" stroke-linejoin="round"/>
<path d="M29.3327 23.8333H14.666M14.666 23.8333C14.666 25.7782 15.4386 27.6435 16.8139 29.0188C18.1892 30.394 20.0544 31.1667 21.9993 31.1667C23.9443 31.1667 25.8095 30.394 27.1848 29.0188C28.5601 27.6435 29.3327 25.7782 29.3327 23.8333H14.666Z" stroke="#121212" stroke-width="2.75" stroke-linecap="round" stroke-linejoin="round"/>
</g>
<defs>
<clipPath id="clip0_4145_7740">
<rect width="44" height="44" fill="white"/>
</clipPath>
</defs>
</svg>
