<svg width="44" height="44" viewBox="0 0 44 44" fill="none" xmlns="http://www.w3.org/2000/svg">
<g clip-path="url(#clip0_4145_7713)">
<path d="M22 38.5C31.1127 38.5 38.5 31.1127 38.5 22C38.5 12.8873 31.1127 5.5 22 5.5C12.8873 5.5 5.5 12.8873 5.5 22C5.5 31.1127 12.8873 38.5 22 38.5Z" stroke="#121212" stroke-width="2.75" stroke-linecap="round" stroke-linejoin="round"/>
<path d="M16.5 18.3333H16.5183" stroke="#121212" stroke-width="2.75" stroke-linecap="round" stroke-linejoin="round"/>
<path d="M27.5 18.3333H27.5183" stroke="#121212" stroke-width="2.75" stroke-linecap="round" stroke-linejoin="round"/>
<path d="M17.416 27.9583C18.0135 27.3486 18.7266 26.8641 19.5136 26.5334C20.3006 26.2027 21.1457 26.0324 21.9993 26.0324C22.853 26.0324 23.6981 26.2027 24.4851 26.5334C25.2721 26.8641 25.9852 27.3486 26.5827 27.9583" stroke="#121212" stroke-width="2.75" stroke-linecap="round" stroke-linejoin="round"/>
</g>
<defs>
<clipPath id="clip0_4145_7713">
<rect width="44" height="44" fill="white"/>
</clipPath>
</defs>
</svg>
