<svg width="44" height="44" viewBox="0 0 44 44" fill="none" xmlns="http://www.w3.org/2000/svg">
<g clip-path="url(#clip0_4145_7703)">
<path d="M16.5 18.3333H16.5183" stroke="#121212" stroke-width="2.75" stroke-linecap="round" stroke-linejoin="round"/>
<path d="M27.5 18.3333H27.5183" stroke="#121212" stroke-width="2.75" stroke-linecap="round" stroke-linejoin="round"/>
<path d="M17.416 27.9583C18.0135 27.3486 18.7266 26.8641 19.5136 26.5334C20.3006 26.2027 21.1457 26.0324 21.9993 26.0324C22.853 26.0324 23.6981 26.2027 24.4851 26.5334C25.2721 26.8641 25.9852 27.3486 26.5827 27.9583" stroke="#121212" stroke-width="2.75" stroke-linecap="round" stroke-linejoin="round"/>
<path d="M32.2052 32.2777C31.7052 32.7922 31.367 33.4422 31.2327 34.147C31.0985 34.8518 31.1739 35.5806 31.4498 36.2429C31.7257 36.9053 32.1898 37.4722 32.7847 37.8733C33.3797 38.2744 34.0792 38.4922 34.7967 38.4997C35.5141 38.5071 36.218 38.3038 36.8211 37.9151C37.4242 37.5264 37.9 36.9692 38.1895 36.3127C38.4791 35.6562 38.5696 34.9292 38.45 34.2217C38.3303 33.5143 38.0057 32.8574 37.5164 32.3327L34.8342 29.3333L32.2052 32.2777V32.2777Z" stroke="#121212" stroke-width="2.75" stroke-linecap="round" stroke-linejoin="round"/>
<path d="M38.2525 24.7812C38.414 23.8629 38.4968 22.9324 38.5 22C38.5 18.7366 37.5323 15.5465 35.7193 12.8331C33.9062 10.1197 31.3293 8.00484 28.3143 6.756C25.2993 5.50715 21.9817 5.18039 18.781 5.81705C15.5803 6.45371 12.6403 8.02518 10.3327 10.3327C8.02518 12.6403 6.45371 15.5803 5.81705 18.781C5.18039 21.9817 5.50715 25.2993 6.756 28.3143C8.00484 31.3293 10.1197 33.9062 12.8331 35.7193C15.5465 37.5323 18.7366 38.5 22 38.5C23.265 38.5 24.4933 38.3607 25.6667 38.093" stroke="#121212" stroke-width="2.75" stroke-linecap="round" stroke-linejoin="round"/>
</g>
<defs>
<clipPath id="clip0_4145_7703">
<rect width="44" height="44" fill="white"/>
</clipPath>
</defs>
</svg>
