<svg width="19" height="20" viewBox="0 0 19 20" fill="none" xmlns="http://www.w3.org/2000/svg">
<path d="M18.7426 17.8561L15.1967 14.3469C17.8878 10.9958 17.6345 6.06406 14.5635 2.9975C12.9489 1.38519 10.8277 0.5 8.54816 0.5C6.26865 0.5 4.11578 1.38519 2.50113 2.9975C0.886476 4.60982 0 6.72795 0 9.03577C0 11.3436 0.886476 13.4617 2.50113 15.074C4.11578 16.6547 6.23699 17.5715 8.54816 17.5715C10.4794 17.5715 12.379 16.9077 13.867 15.7063L17.3813 19.2155C17.5712 19.4052 17.7928 19.5 18.0461 19.5C18.2994 19.5 18.5527 19.4052 18.711 19.2155C19.0909 18.8361 19.0909 18.2354 18.7426 17.8561ZM15.1967 9.03577C15.1967 10.8062 14.5002 12.4817 13.2338 13.7146C11.9674 14.9476 10.3211 15.6747 8.54816 15.6747C6.77521 15.6747 5.09724 14.9792 3.8625 13.7146C2.62777 12.4501 1.89959 10.8062 1.89959 9.03577C1.89959 7.26539 2.59611 5.58985 3.8625 4.35691C5.1289 3.12396 6.74355 2.39684 8.54816 2.39684C10.3211 2.39684 11.9991 3.09235 13.2338 4.35691C14.4686 5.62146 15.1967 7.23378 15.1967 9.03577Z" fill="#A0A0A0"/>
</svg>
